<?xml version="1.0" encoding="utf-8"?><svg xmlns="http://www.w3.org/2000/svg" xmlns:xlink="http://www.w3.org/1999/xlink"><symbol viewBox="0 0 26 11" id="arrow-left" xmlns="http://www.w3.org/2000/svg"><path d="M25 10H2.414c-.89 0-1.337-1.077-.707-1.707L9 1"/></symbol><symbol viewBox="0 0 26 11" id="arrow-right" xmlns="http://www.w3.org/2000/svg"><path opacity=".5" d="M1 10h22.586c.89 0 1.337-1.077.707-1.707L17 1"/></symbol><symbol viewBox="0 0 24 24" id="at" xmlns="http://www.w3.org/2000/svg"><path d="M12 16a4 4 0 100-8 4 4 0 000 8z"/><path d="M16 8v5a3 3 0 006 0v-1a10 10 0 10-3.92 7.94"/></symbol><symbol viewBox="0 0 24 24" id="clock" xmlns="http://www.w3.org/2000/svg"><path d="M12 22c5.523 0 10-4.477 10-10S17.523 2 12 2 2 6.477 2 12s4.477 10 10 10z"/><path d="M12 6v6l4 2"/></symbol><symbol viewBox="0 0 24 25" id="facebook" xmlns="http://www.w3.org/2000/svg"><path fill-rule="evenodd" clip-rule="evenodd" d="M13.457 19.5v-6.75h2.186l.357-3h-2.543V8.289c0-.772.021-1.539 1.172-1.539h1.167V4.605c0-.032-1.002-.105-2.015-.105-2.117 0-3.442 1.243-3.442 3.525V9.75H8v3h2.339v6.75h3.118z"/></symbol><symbol viewBox="0 0 24 25" id="google" xmlns="http://www.w3.org/2000/svg"><path fill-rule="evenodd" clip-rule="evenodd" d="M18.875 11.103h-6.727c0 .7 0 2.098-.004 2.798h3.898c-.15.7-.68 1.68-1.428 2.172 0 0 0 .005-.002.004-.995.657-2.308.806-3.283.61a4.33 4.33 0 01-3.229-2.82c.003-.002.005-.021.007-.023-.307-.873-.307-2.042 0-2.741.396-1.286 1.642-2.46 3.172-2.78 1.23-.261 2.62.021 3.64.977.136-.133 1.88-1.836 2.011-1.974-3.49-3.16-9.076-2.049-11.167 2.032l-.004.008a6.837 6.837 0 00.007 6.274l-.007.006a7.126 7.126 0 004.536 3.616c2.107.552 4.79.174 6.587-1.45l.002.001c1.522-1.37 2.47-3.707 1.991-6.71z"/></symbol><symbol viewBox="0 0 24 25" id="instagram" xmlns="http://www.w3.org/2000/svg"><g clip-path="url(#gclip0)"><path d="M12 .133c-3.26 0-3.667.015-4.947.072-1.278.06-2.148.261-2.913.558a5.876 5.876 0 00-2.126 1.384A5.855 5.855 0 00.63 4.273C.333 5.038.131 5.908.072 7.186.012 8.466 0 8.873 0 12.133S.015 15.8.072 17.08c.06 1.277.261 2.148.558 2.913a5.885 5.885 0 001.384 2.126 5.868 5.868 0 002.126 1.384c.766.296 1.636.5 2.913.558 1.28.06 1.687.072 4.947.072s3.667-.015 4.947-.072c1.277-.06 2.148-.262 2.913-.558a5.898 5.898 0 002.126-1.384 5.86 5.86 0 001.384-2.126c.296-.765.499-1.636.558-2.913.06-1.28.072-1.687.072-4.947s-.015-3.667-.072-4.947c-.06-1.277-.262-2.149-.558-2.913a5.89 5.89 0 00-1.384-2.126A5.847 5.847 0 0019.86.763c-.765-.297-1.636-.499-2.913-.558C15.667.145 15.26.133 12 .133zm0 2.16c3.203 0 3.585.016 4.85.071 1.17.055 1.805.25 2.227.415.562.217.96.477 1.382.896.419.42.679.82.896 1.381.164.422.36 1.057.413 2.227.057 1.266.07 1.646.07 4.85 0 3.204-.015 3.585-.074 4.85-.061 1.17-.256 1.805-.421 2.227a3.81 3.81 0 01-.899 1.382 3.744 3.744 0 01-1.38.896c-.42.164-1.065.36-2.235.413-1.274.057-1.649.07-4.859.07-3.211 0-3.586-.015-4.859-.074-1.171-.06-1.816-.256-2.236-.42a3.716 3.716 0 01-1.379-.9 3.644 3.644 0 01-.9-1.38c-.165-.42-.359-1.065-.42-2.235-.045-1.26-.061-1.649-.061-4.844 0-3.196.016-3.586.061-4.86.061-1.17.255-1.815.42-2.235.21-.57.479-.96.9-1.38.419-.42.81-.69 1.379-.899.42-.166 1.051-.36 2.221-.42 1.275-.046 1.65-.06 4.859-.06l.045.03zm0 3.678a6.162 6.162 0 100 12.324 6.162 6.162 0 100-12.324zm0 10.162c-2.21 0-4-1.79-4-4s1.79-4 4-4 4 1.79 4 4-1.79 4-4 4zm7.846-10.405a1.441 1.441 0 01-2.88 0 1.44 1.44 0 012.88 0z"/></g><defs><clipPath id="gclip0"><path transform="translate(0 .133)" d="M0 0h24v24H0z"/></clipPath></defs></symbol><symbol viewBox="0 0 24 24" id="linkedin" xmlns="http://www.w3.org/2000/svg"><path d="M20.447 20.452h-3.554v-5.569c0-1.328-.027-3.037-1.852-3.037-1.853 0-2.136 1.445-2.136 2.939v5.667H9.351V9h3.414v1.561h.046c.477-.9 1.637-1.85 3.37-1.85 3.601 0 4.267 2.37 4.267 5.455v6.286h-.001zM5.337 7.433a2.062 2.062 0 01-2.063-2.065 2.064 2.064 0 112.063 2.065zm1.782 13.019H3.555V9h3.564v11.452zM22.225 0H1.771C.792 0 0 .774 0 1.729v20.542C0 23.227.792 24 1.771 24h20.451C23.2 24 24 23.227 24 22.271V1.729C24 .774 23.2 0 22.222 0h.003z"/></symbol><symbol viewBox="0 0 24 25" id="linkedin2" xmlns="http://www.w3.org/2000/svg"><path fill-rule="evenodd" clip-rule="evenodd" d="M20 19.5h-3.077v-5.603c0-1.537-.651-2.395-1.82-2.395-1.271 0-2.026.894-2.026 2.395V19.5H10V9.092h3.077v1.17s.965-1.762 3.14-1.762C18.395 8.5 20 9.882 20 12.742V19.5zM5.5 6.5a1.5 1.5 0 110-3 1.5 1.5 0 010 3zM4 19.5h3v-10H4v10z"/></symbol><symbol viewBox="0 0 52 38" id="logo" xmlns="http://www.w3.org/2000/svg"><path d="M48.036 12.11V38H52V14.295l-3.964-2.184zm-44.072-.039V38H0V14.255l3.964-2.184zm31.828 2.899v4.72l4.12 2.229v-4.726l-4.12-2.223z"/><path fill-rule="evenodd" clip-rule="evenodd" d="M39.913 21.919v-4.726l3.963 2.184v4.686l-3.963-2.144z"/><path d="M39.913 17.193l3.963 2.184v-9.53l-3.963-2.144v9.49zM12.01 26.207v.476l3.924-2.144v-4.765l-3.925 2.145v4.288z"/><path d="M12.01 20.767V7.664L8.005 9.847V38h4.003V20.767zM31.867 37.96h3.925v-8.815l4.12 2.224v6.591h3.964v-9.132l-8.084-4.438-3.925-2.154V37.96z"/><path d="M23.94 38h3.924V5.877l4.003 2.184 3.925 2.07V5.519L25.98 0 15.934 5.52V38h4.042V8.06L23.9 5.878V8.06L23.94 38z"/><path d="M35.792 19.69v-4.72l-3.925-2.184v4.725l3.925 2.178zM31.867 8.06v4.725l3.925 2.185v-4.84l-3.925-2.07z"/><path d="M35.792 19.69l-3.925-2.179v4.725l3.925 2.154v-4.7z"/></symbol><symbol viewBox="0 0 24 24" id="phone" xmlns="http://www.w3.org/2000/svg"><path d="M22 16.92v3a2 2 0 01-2.18 2 19.79 19.79 0 01-8.63-3.07 19.501 19.501 0 01-6-6 19.79 19.79 0 01-3.07-8.67A2 2 0 014.11 2h3a2 2 0 012 1.72c.127.96.361 1.903.7 2.81a2 2 0 01-.45 2.11L8.09 9.91a16 16 0 006 6l1.27-1.27a2 2 0 012.11-.45c.907.338 1.85.573 2.81.7A2 2 0 0122 16.92z"/></symbol><symbol viewBox="0 0 24 25" id="twitter" xmlns="http://www.w3.org/2000/svg"><path fill-rule="evenodd" clip-rule="evenodd" d="M9.032 19.5c6.038 0 9.34-5.387 9.34-10.058 0-.153 0-.306-.01-.457A6.975 6.975 0 0020 7.155a6.178 6.178 0 01-1.885.557 3.518 3.518 0 001.443-1.956 6.302 6.302 0 01-2.084.858c-1.244-1.423-3.323-1.492-4.645-.153-.852.863-1.215 2.15-.95 3.378-2.639-.143-5.098-1.486-6.765-3.694-.872 1.616-.426 3.681 1.016 4.719a3.083 3.083 0 01-1.49-.442v.045c0 1.682 1.102 3.131 2.634 3.464a3.04 3.04 0 01-1.482.06c.43 1.441 1.662 2.428 3.066 2.456-1.162.984-2.598 1.518-4.076 1.516a6.21 6.21 0 01-.782-.05 8.82 8.82 0 005.032 1.584"/></symbol><symbol viewBox="0 0 24 25" id="youtube" xmlns="http://www.w3.org/2000/svg"><path d="M23.495 6.472a3.006 3.006 0 00-2.088-2.088c-1.87-.501-9.396-.501-9.396-.501s-7.507-.01-9.396.5a3.007 3.007 0 00-2.088 2.09 31.247 31.247 0 00-.522 5.805 31.25 31.25 0 00.522 5.783 3.007 3.007 0 002.088 2.088c1.868.502 9.396.502 9.396.502s7.506 0 9.396-.502a3.007 3.007 0 002.088-2.088c.346-1.908.513-3.844.5-5.783a31.247 31.247 0 00-.5-5.805zM9.609 15.868V8.675l6.264 3.602-6.264 3.59z"/></symbol></svg>